<svg width="54" height="25" viewBox="0 0 54 25" fill="none" xmlns="http://www.w3.org/2000/svg">
<path d="M10.8651 12.768C10.8544 12.832 10.7904 12.848 10.6731 12.816C10.5664 12.7947 10.4704 12.72 10.3851 12.592C10.2997 12.3893 10.2571 12.2027 10.2571 12.032C10.2571 11.8613 10.2624 11.6053 10.2731 11.264C10.3371 10.8907 10.4224 10.4053 10.5291 9.808C10.6464 9.2 10.7797 8.52267 10.9291 7.776C11.0891 7.01867 11.2597 6.22933 11.4411 5.408C11.5691 4.98133 11.6704 4.592 11.7451 4.24C11.8304 3.87733 11.8944 3.584 11.9371 3.36C11.9797 3.136 12.0011 3.024 12.0011 3.024C12.0011 2.992 11.9691 3.008 11.9051 3.072C11.8517 3.12533 11.7984 3.18933 11.7451 3.264C11.6917 3.33867 11.6704 3.39733 11.6811 3.44C11.6811 3.44 11.6437 3.49333 11.5691 3.6C11.4944 3.70667 11.3984 3.85067 11.2811 4.032C11.1744 4.13867 11.0464 4.352 10.8971 4.672C10.7477 4.992 10.5824 5.29067 10.4011 5.568C10.2304 5.888 10.0491 6.23467 9.85706 6.608C9.66506 6.97067 9.4944 7.27467 9.34506 7.52C9.24906 7.65867 9.15306 7.81867 9.05706 8C8.96106 8.18133 8.9024 8.29867 8.88106 8.352C8.8384 8.46933 8.76373 8.61333 8.65706 8.784C8.5504 8.944 8.43306 9.104 8.30506 9.264C8.24106 9.36 8.17706 9.46133 8.11306 9.568C8.04906 9.664 7.99573 9.74933 7.95306 9.824C7.92106 9.888 7.90506 9.92 7.90506 9.92C7.90506 9.952 7.85173 10.048 7.74506 10.208C7.64906 10.368 7.5264 10.544 7.37706 10.736C7.2384 10.928 7.10506 11.0933 6.97706 11.232C6.60373 11.6267 6.30506 11.8613 6.08106 11.936C5.85706 12 5.6064 11.904 5.32906 11.648C5.1904 11.4773 5.08906 11.2853 5.02506 11.072C4.96106 10.848 4.9344 10.576 4.94506 10.256C4.95573 9.92533 4.99306 9.51467 5.05706 9.024C5.13173 8.65067 5.20106 8.27733 5.26506 7.904C5.32906 7.52 5.38773 7.16267 5.44106 6.832C5.50506 6.49067 5.5584 6.20267 5.60106 5.968C5.6544 5.73333 5.69706 5.57867 5.72906 5.504C5.7504 5.29067 5.74506 5.17333 5.71306 5.152C5.68106 5.13067 5.61706 5.19467 5.52106 5.344C5.4784 5.41867 5.3664 5.60533 5.18506 5.904C5.00373 6.192 4.7904 6.54933 4.54506 6.976C4.3104 7.40267 4.07573 7.86667 3.84106 8.368C3.40373 9.17867 3.04106 9.85067 2.75306 10.384C2.47573 10.9067 2.25173 11.3227 2.08106 11.632C1.92106 11.9413 1.80373 12.1707 1.72906 12.32C1.6544 12.4693 1.60106 12.5707 1.56906 12.624C1.53706 12.6773 1.5104 12.7147 1.48906 12.736C1.39306 12.736 1.29173 12.6933 1.18506 12.608C1.08906 12.5333 0.987729 12.4427 0.881063 12.336C0.849063 12.2613 0.833063 12.1867 0.833063 12.112C0.843729 12.0373 0.881063 11.9307 0.945063 11.792C1.00906 11.6427 1.10506 11.4187 1.23306 11.12C1.37173 10.8427 1.49973 10.6027 1.61706 10.4C1.7344 10.1867 1.82506 10.0587 1.88906 10.016C1.9424 9.93067 1.9904 9.84533 2.03306 9.76C2.07573 9.67467 2.1024 9.57333 2.11306 9.456C2.1664 9.392 2.2464 9.264 2.35306 9.072C2.4704 8.86933 2.58773 8.65067 2.70506 8.416C2.7904 8.27733 2.89706 8.096 3.02506 7.872C3.16373 7.648 3.30773 7.40267 3.45706 7.136C3.6064 6.85867 3.73973 6.59733 3.85706 6.352C4.34773 5.50933 4.76373 4.8 5.10506 4.224C5.4464 3.63733 5.7024 3.264 5.87306 3.104C5.9264 3.05067 5.97973 2.976 6.03306 2.88C6.09706 2.784 6.12906 2.69867 6.12906 2.624C6.12906 2.4 6.17173 2.19733 6.25706 2.016C6.35306 1.824 6.44906 1.73867 6.54506 1.76C6.65173 1.76 6.74773 1.77067 6.83306 1.792C6.9184 1.81333 7.00906 1.88267 7.10506 2C7.1904 2.128 7.26506 2.256 7.32906 2.384C7.39306 2.512 7.38773 2.768 7.31306 3.152C7.31306 3.30133 7.29706 3.472 7.26506 3.664C7.23306 3.84533 7.20106 4.016 7.16906 4.176C7.14773 4.32533 7.13173 4.44267 7.12106 4.528C6.9824 4.944 6.8544 5.41333 6.73706 5.936C6.61973 6.448 6.51306 6.97067 6.41706 7.504C6.32106 8.02667 6.24106 8.51733 6.17706 8.976C6.11306 9.424 6.0704 9.79733 6.04906 10.096C6.0384 10.384 6.04906 10.5493 6.08106 10.592C6.15573 10.6347 6.21973 10.64 6.27306 10.608C6.3264 10.576 6.41706 10.4373 6.54506 10.192C6.61973 10.064 6.72106 9.90933 6.84906 9.728C6.98773 9.536 7.12106 9.36 7.24906 9.2C7.3344 9.05067 7.46773 8.82667 7.64906 8.528C7.8304 8.22933 8.05973 7.84533 8.33706 7.376C8.62506 6.90667 8.9664 6.336 9.36106 5.664C9.7664 4.98133 10.2251 4.192 10.7371 3.296C10.9824 2.92267 11.2117 2.56 11.4251 2.208C11.6491 1.84533 11.8304 1.61067 11.9691 1.504C12.1184 1.36533 12.2731 1.33333 12.4331 1.408C12.5931 1.472 12.7317 1.61067 12.8491 1.824C12.9771 2.03733 13.0464 2.304 13.0571 2.624C13.0677 2.77333 13.0464 3.01333 12.9931 3.344C12.9504 3.67467 12.8811 4.05333 12.7851 4.48C12.6891 4.896 12.5664 5.328 12.4171 5.776C12.3851 5.95733 12.3317 6.18667 12.2571 6.464C12.1931 6.73067 12.1184 7.008 12.0331 7.296C11.9477 7.584 11.8624 7.856 11.7771 8.112C11.7237 8.464 11.6597 8.81067 11.5851 9.152C11.5211 9.49333 11.4997 9.72267 11.5211 9.84C11.4251 10.0107 11.3611 10.256 11.3291 10.576C11.2971 10.896 11.2811 11.2267 11.2811 11.568C11.2384 11.984 11.2064 12.2773 11.1851 12.448C11.1637 12.6187 11.1264 12.6987 11.0731 12.688C10.9344 12.6453 10.8651 12.672 10.8651 12.768ZM14.6047 12.32C14.21 12.0213 13.9594 11.792 13.8527 11.632C13.746 11.4613 13.682 11.2587 13.6607 11.024C13.6394 10.832 13.6394 10.5707 13.6607 10.24C13.6927 9.90933 13.73 9.584 13.7727 9.264C13.8154 8.944 13.8527 8.704 13.8847 8.544C13.938 8.49067 13.9594 8.42133 13.9487 8.336C13.9487 8.24 13.9487 8.192 13.9487 8.192C13.938 8.13867 13.9754 8 14.0607 7.776C14.146 7.54133 14.226 7.24267 14.3007 6.88C14.514 6.24 14.7167 5.70667 14.9087 5.28C15.1114 4.84267 15.3087 4.46933 15.5007 4.16C15.6927 3.85067 15.8847 3.568 16.0767 3.312C16.514 2.864 16.866 2.528 17.1327 2.304C17.3994 2.06933 17.698 1.87733 18.0287 1.728C18.242 1.6 18.4394 1.49867 18.6207 1.424C18.802 1.34933 18.9514 1.33867 19.0687 1.392C19.666 1.52 20.114 1.76533 20.4127 2.128C20.7114 2.48 20.93 3.02933 21.0687 3.776C21.1434 4.24533 21.186 4.672 21.1967 5.056C21.218 5.42933 21.1914 5.80267 21.1167 6.176C21.042 6.53867 20.9034 6.93867 20.7007 7.376C20.5087 7.81333 20.2367 8.32533 19.8847 8.912C19.5114 9.648 19.09 10.288 18.6207 10.832C18.162 11.376 17.6874 11.8027 17.1967 12.112C16.7167 12.432 16.2474 12.6133 15.7887 12.656C15.3407 12.6987 14.946 12.5867 14.6047 12.32ZM15.6287 11.856C15.874 11.824 16.1087 11.7493 16.3327 11.632C16.5567 11.5147 16.7914 11.344 17.0367 11.12C17.282 10.8853 17.5594 10.592 17.8687 10.24C18.146 9.92 18.37 9.65333 18.5407 9.44C18.722 9.216 18.8714 8.992 18.9887 8.768C19.1167 8.544 19.234 8.272 19.3407 7.952C19.458 7.632 19.5914 7.216 19.7407 6.704C19.826 6.384 19.89 6.11733 19.9327 5.904C19.9754 5.69067 20.002 5.49333 20.0127 5.312C20.0234 5.12 20.0234 4.90133 20.0127 4.656C20.0127 4.41067 20.0127 4.096 20.0127 3.712C20.002 3.53067 19.9647 3.344 19.9007 3.152C19.8367 2.94933 19.762 2.8 19.6767 2.704C19.57 2.58667 19.4207 2.50667 19.2287 2.464C19.0367 2.41067 18.8234 2.43733 18.5887 2.544C18.4607 2.59733 18.2954 2.72 18.0927 2.912C17.89 3.09333 17.6767 3.30667 17.4527 3.552C17.2287 3.79733 17.0154 4.048 16.8127 4.304C16.6207 4.56 16.4607 4.78933 16.3327 4.992C16.2154 5.184 16.1567 5.31733 16.1567 5.392C16.1567 5.392 16.1514 5.41867 16.1407 5.472C16.1407 5.52533 16.1194 5.57867 16.0767 5.632C15.938 5.78133 15.7834 6.048 15.6127 6.432C15.4527 6.816 15.298 7.25333 15.1487 7.744C14.9994 8.224 14.8714 8.704 14.7647 9.184C14.6687 9.65333 14.61 10.064 14.5887 10.416C14.5674 10.704 14.5567 10.9013 14.5567 11.008C14.5567 11.1147 14.578 11.2 14.6207 11.264C14.6634 11.3173 14.7327 11.424 14.8287 11.584C14.8927 11.6907 14.9994 11.7707 15.1487 11.824C15.3087 11.8773 15.4687 11.888 15.6287 11.856ZM21.7742 12.368C21.7742 12.4427 21.7529 12.4533 21.7102 12.4C21.6675 12.3467 21.5875 12.272 21.4702 12.176C21.3742 12.08 21.3155 11.984 21.2942 11.888C21.2729 11.792 21.2675 11.6427 21.2782 11.44C21.3315 11.1947 21.4275 10.8373 21.5662 10.368C21.7049 9.888 21.8702 9.38667 22.0622 8.864C22.0835 8.66133 22.1209 8.47467 22.1742 8.304C22.2275 8.13333 22.2542 8.048 22.2542 8.048C22.2542 8.02667 22.2809 8 22.3342 7.968C22.3875 7.936 22.4302 7.88267 22.4622 7.808C22.5049 7.78667 22.5209 7.73333 22.5102 7.648C22.4995 7.552 22.4889 7.488 22.4782 7.456C22.4782 7.38133 22.5155 7.21067 22.5902 6.944C22.6755 6.67733 22.7982 6.30933 22.9582 5.84C23.1289 5.37067 23.3369 4.79467 23.5822 4.112C23.6995 3.96267 23.7902 3.80267 23.8542 3.632C23.9289 3.46133 23.9662 3.376 23.9662 3.376C24.0515 3.26933 24.0889 3.2 24.0782 3.168C24.0675 3.136 23.9875 3.072 23.8382 2.976C23.7529 2.82667 23.6889 2.67733 23.6462 2.528C23.6035 2.37867 23.6355 2.24 23.7422 2.112C23.7742 2.05867 23.8329 1.98933 23.9182 1.904C24.0142 1.81867 24.1155 1.73867 24.2222 1.664C24.4675 1.536 24.6489 1.45067 24.7662 1.408C24.8942 1.35467 25.0542 1.35467 25.2462 1.408C25.5875 1.41867 25.8489 1.43467 26.0302 1.456C26.2115 1.47733 26.3289 1.53067 26.3822 1.616C26.4142 1.65867 26.4675 1.70133 26.5422 1.744C26.6275 1.776 26.7075 1.792 26.7822 1.792C26.9742 1.81333 27.1822 1.872 27.4062 1.968C27.6302 2.064 27.8275 2.16 27.9982 2.256C28.1795 2.352 28.2862 2.42133 28.3182 2.464C28.4995 2.61333 28.6542 2.84267 28.7822 3.152C28.9209 3.46133 29.0062 3.81867 29.0382 4.224C29.0382 4.46933 29.0275 4.67733 29.0062 4.848C28.9955 5.008 28.9529 5.168 28.8782 5.328C28.8035 5.488 28.6809 5.68533 28.5102 5.92C28.1902 6.45333 27.7582 6.97067 27.2142 7.472C26.6809 7.96267 26.0622 8.41067 25.3582 8.816C25.3369 8.85867 25.3102 8.90667 25.2782 8.96C25.2569 9.00267 25.2462 9.024 25.2462 9.024C25.2462 9.09867 25.3102 9.216 25.4382 9.376C25.5662 9.536 25.7262 9.712 25.9182 9.904C26.1209 10.096 26.3235 10.288 26.5262 10.48C26.7395 10.6613 26.9315 10.816 27.1022 10.944C27.2729 11.072 27.3902 11.152 27.4542 11.184C27.5182 11.2053 27.5982 11.2 27.6942 11.168C27.8009 11.136 27.8969 11.1307 27.9822 11.152C28.0675 11.1627 28.1102 11.2587 28.1102 11.44C28.1315 11.5893 28.0835 11.7227 27.9662 11.84C27.8489 11.9467 27.7742 12.0107 27.7422 12.032C27.6782 12.1387 27.6249 12.2133 27.5822 12.256C27.5502 12.2987 27.4969 12.2987 27.4222 12.256C27.3582 12.224 27.2462 12.1547 27.0862 12.048C26.7022 11.92 26.3342 11.696 25.9822 11.376C25.6302 11.056 25.2729 10.672 24.9102 10.224C24.6862 9.98933 24.5102 9.824 24.3822 9.728C24.2649 9.62133 24.1635 9.55733 24.0782 9.536C23.9929 9.51467 23.8862 9.51467 23.7582 9.536C23.6835 9.536 23.5929 9.53067 23.4862 9.52C23.3902 9.49867 23.2995 9.44533 23.2142 9.36C23.2035 9.28533 23.1449 9.232 23.0382 9.2C22.9422 9.15733 22.8942 9.17333 22.8942 9.248C22.8835 9.26933 22.8462 9.38133 22.7822 9.584C22.7182 9.78667 22.6489 10 22.5742 10.224C22.4995 10.4373 22.4355 10.5867 22.3822 10.672C22.4035 10.768 22.3875 10.928 22.3342 11.152C22.2809 11.376 22.1955 11.6907 22.0782 12.096C22.0675 12.2133 22.0409 12.304 21.9982 12.368C21.9662 12.4427 21.9502 12.4427 21.9502 12.368C21.8862 12.3253 21.8435 12.304 21.8222 12.304C21.8115 12.304 21.7955 12.3253 21.7742 12.368ZM24.7822 8.16C25.1235 7.95733 25.4649 7.71733 25.8062 7.44C26.1475 7.16267 26.4569 6.88533 26.7342 6.608C27.0115 6.33067 27.2195 6.08533 27.3582 5.872C27.4435 5.808 27.5235 5.70133 27.5982 5.552C27.6835 5.40267 27.7529 5.312 27.8062 5.28C27.8915 5.16267 27.9502 5.07733 27.9822 5.024C28.0249 4.96 28.0195 4.88 27.9662 4.784C27.9662 4.69867 27.9715 4.61333 27.9822 4.528C27.9929 4.44267 28.0249 4.36267 28.0782 4.288C28.1849 3.968 28.1902 3.744 28.0942 3.616C28.0089 3.488 27.8329 3.36533 27.5662 3.248C27.5129 3.19467 27.4169 3.14133 27.2782 3.088C27.1502 3.03467 27.0115 2.98667 26.8622 2.944C26.7129 2.89067 26.5955 2.848 26.5102 2.816C26.3289 2.784 26.1475 2.75733 25.9662 2.736C25.7849 2.704 25.6462 2.69333 25.5502 2.704C25.4329 2.736 25.3529 2.77867 25.3102 2.832C25.2675 2.87467 25.1769 3.03467 25.0382 3.312C25.0169 3.45067 24.9742 3.58933 24.9102 3.728C24.8462 3.86667 24.7929 3.94667 24.7502 3.968C24.7395 4.01067 24.6862 4.16533 24.5902 4.432C24.4942 4.69867 24.3769 5.01867 24.2382 5.392C24.1102 5.76533 23.9769 6.13867 23.8382 6.512C23.7102 6.87467 23.6035 7.184 23.5182 7.44C23.4329 7.696 23.3902 7.84533 23.3902 7.888C23.3902 7.90933 23.4435 7.96267 23.5502 8.048C23.6569 8.12267 23.7209 8.12267 23.7422 8.048C23.7422 8.048 23.7849 8.064 23.8702 8.096C23.9555 8.128 24.0195 8.15467 24.0622 8.176L24.3022 8.32L24.7822 8.16ZM30.6709 12.88C30.5856 12.7733 30.4096 12.7093 30.1429 12.688C29.8869 12.6667 29.5723 12.672 29.1989 12.704C29.0496 12.7253 28.9056 12.72 28.7669 12.688C28.6283 12.656 28.5163 12.6027 28.4309 12.528C28.3456 12.4533 28.3136 12.368 28.3349 12.272C28.3456 12.144 28.4523 12.0427 28.6549 11.968C28.8576 11.8827 29.1883 11.8293 29.6469 11.808L30.4949 11.76L30.6549 11.424C30.6869 11.3067 30.7296 11.1413 30.7829 10.928C30.8469 10.7147 30.9109 10.4853 30.9749 10.24C31.0176 10.0907 31.0816 9.872 31.1669 9.584C31.2629 9.28533 31.3643 8.97067 31.4709 8.64C31.5776 8.30933 31.6736 8.01067 31.7589 7.744C31.8443 7.47733 31.8923 7.296 31.9029 7.2C31.9456 7.104 32.0043 6.928 32.0789 6.672C32.1536 6.416 32.2283 6.15467 32.3029 5.888C32.3776 5.61067 32.4256 5.41867 32.4469 5.312C32.6923 4.45867 32.8523 3.85067 32.9269 3.488C33.0016 3.12533 33.0176 2.944 32.9749 2.944C32.9323 2.944 32.8256 2.94933 32.6549 2.96C32.4949 2.97067 32.3136 2.992 32.1109 3.024C31.9189 3.04533 31.7429 3.072 31.5829 3.104C31.4336 3.12533 31.3483 3.14667 31.3269 3.168C31.2736 3.24267 31.1829 3.264 31.0549 3.232C30.9269 3.18933 30.8416 3.11467 30.7989 3.008C30.7883 2.912 30.7829 2.83733 30.7829 2.784C30.7936 2.73067 30.8203 2.688 30.8629 2.656C30.9376 2.592 31.0763 2.51733 31.2789 2.432C31.4923 2.34667 31.7323 2.26667 31.9989 2.192C32.2763 2.11733 32.5376 2.05867 32.7829 2.016C32.9643 1.99467 33.1456 1.952 33.3269 1.888C33.5083 1.81333 33.6469 1.73333 33.7429 1.648C33.8389 1.60533 33.9296 1.57333 34.0149 1.552C34.1109 1.53067 34.2069 1.52533 34.3029 1.536C34.3883 1.57867 34.5323 1.6 34.7349 1.6C34.9483 1.58933 35.1723 1.57333 35.4069 1.552C36.0043 1.47733 36.4096 1.45067 36.6229 1.472C36.8363 1.48267 36.9803 1.56267 37.0549 1.712C37.1083 1.904 37.1189 2.05867 37.0869 2.176C37.0656 2.29333 36.9643 2.34667 36.7829 2.336C36.6869 2.368 36.5109 2.39467 36.2549 2.416C36.0096 2.43733 35.7483 2.45867 35.4709 2.48C35.1083 2.52267 34.8203 2.57067 34.6069 2.624C34.4043 2.66667 34.2923 2.70933 34.2709 2.752C34.2283 2.79467 34.1909 2.83733 34.1589 2.88C34.1376 2.92267 34.1056 2.97067 34.0629 3.024C34.0843 3.06667 34.0683 3.20533 34.0149 3.44C33.9616 3.664 33.8976 3.89867 33.8229 4.144C33.7803 4.28267 33.7163 4.49067 33.6309 4.768C33.5456 5.03467 33.4549 5.31733 33.3589 5.616C33.2736 5.91467 33.1936 6.18667 33.1189 6.432C33.0443 6.66667 32.9909 6.82133 32.9589 6.896C32.9269 6.992 32.8949 7.09867 32.8629 7.216C32.8416 7.32267 32.8309 7.40267 32.8309 7.456C32.6603 8.14933 32.5003 8.74133 32.3509 9.232C32.2016 9.712 32.0629 10.144 31.9349 10.528C31.8176 10.912 31.7109 11.3013 31.6149 11.696C31.6149 11.696 31.6949 11.6907 31.8549 11.68C32.0256 11.6587 32.2496 11.6267 32.5269 11.584C32.9003 11.5307 33.1936 11.4933 33.4069 11.472C33.6203 11.4507 33.7803 11.4453 33.8869 11.456C33.9936 11.456 34.0629 11.4773 34.0949 11.52C34.1376 11.552 34.1749 11.6053 34.2069 11.68C34.4309 11.9573 34.4629 12.1493 34.3029 12.256C34.1536 12.3627 33.7803 12.4267 33.1829 12.448C32.6283 12.4907 32.2016 12.5227 31.9029 12.544C31.6149 12.576 31.4123 12.608 31.2949 12.64C31.1883 12.672 31.1296 12.7253 31.1189 12.8C31.1189 12.8533 31.0976 12.8907 31.0549 12.912C31.0229 12.944 30.9696 12.9547 30.8949 12.944C30.8309 12.9333 30.7563 12.912 30.6709 12.88ZM41.1929 13.456C41.2463 13.5627 41.2089 13.6267 41.0809 13.648C40.9529 13.6693 40.7876 13.6 40.5849 13.44C40.4889 13.44 40.4196 13.3707 40.3769 13.232C40.3449 13.104 40.3449 12.8853 40.3769 12.576C40.4089 12.2667 40.4623 11.84 40.5369 11.296C40.5689 11.1253 40.5903 10.944 40.6009 10.752C40.6223 10.5493 40.6383 10.3467 40.6489 10.144C40.6596 9.94133 40.6649 9.76 40.6649 9.6L40.7609 8.896H40.3609C40.2223 8.93867 39.9983 8.96533 39.6889 8.976C39.3903 8.976 39.1183 8.97067 38.8729 8.96C38.5743 8.94933 38.3289 8.96 38.1369 8.992C37.9556 9.01333 37.8116 9.05067 37.7049 9.104C37.6089 9.15733 37.5449 9.23733 37.5129 9.344C37.5129 9.38667 37.4596 9.536 37.3529 9.792C37.2569 10.048 37.1343 10.3253 36.9849 10.624C36.6223 11.52 36.3289 12.1333 36.1049 12.464C35.8809 12.8053 35.6143 12.848 35.3049 12.592C35.2089 12.592 35.1823 12.4853 35.2249 12.272C35.2783 12.0587 35.3796 11.8027 35.5289 11.504C35.6356 11.3547 35.7316 11.2053 35.8169 11.056C35.9023 10.896 35.9449 10.816 35.9449 10.816C35.9449 10.7733 35.9503 10.7147 35.9609 10.64C35.9823 10.5653 36.0303 10.448 36.1049 10.288C36.1796 10.1173 36.3023 9.86667 36.4729 9.536C36.5263 9.38667 36.5743 9.25867 36.6169 9.152C36.6596 9.04533 36.6809 8.97067 36.6809 8.928C36.6809 8.928 36.7023 8.88 36.7449 8.784C36.7983 8.688 36.8783 8.53867 36.9849 8.336C36.9849 8.28267 37.0009 8.22933 37.0329 8.176C37.0756 8.112 37.0969 8.032 37.0969 7.936C37.1503 7.88267 37.2036 7.78133 37.2569 7.632C37.3103 7.472 37.3583 7.344 37.4009 7.248C37.4009 7.09867 37.4436 6.93867 37.5289 6.768C37.6143 6.58667 37.6783 6.448 37.7209 6.352C37.7743 6.24533 37.8223 6.14933 37.8649 6.064C37.9076 5.968 37.9289 5.89867 37.9289 5.856C37.9289 5.856 37.9343 5.824 37.9449 5.76C37.9663 5.68533 38.0303 5.54667 38.1369 5.344C38.0943 5.344 38.0889 5.31733 38.1209 5.264C38.1636 5.21067 38.2383 5.11467 38.3449 4.976C38.3449 4.86933 38.3663 4.77867 38.4089 4.704C38.4623 4.61867 38.5103 4.47467 38.5529 4.272C38.6063 4.21867 38.6436 4.16 38.6649 4.096C38.6863 4.02133 38.7183 3.91467 38.7609 3.776C38.8676 3.52 38.9636 3.30667 39.0489 3.136C39.1343 2.95467 39.1769 2.864 39.1769 2.864C39.1769 2.864 39.1983 2.82133 39.2409 2.736C39.2943 2.65067 39.3423 2.53333 39.3849 2.384C39.4383 2.23467 39.4863 2.112 39.5289 2.016C39.5716 1.90933 39.5929 1.83467 39.5929 1.792C39.6463 1.792 39.6943 1.77067 39.7369 1.728C39.7796 1.67467 39.8009 1.59467 39.8009 1.488C39.8116 1.43467 39.8436 1.392 39.8969 1.36C39.9609 1.31733 40.0676 1.30133 40.2169 1.312C40.6223 1.216 40.9743 1.22667 41.2729 1.344C41.5716 1.46133 41.8063 1.664 41.9769 1.952C42.1583 2.24 42.2596 2.60267 42.2809 3.04C42.2809 3.40267 42.2596 3.872 42.2169 4.448C42.1849 5.01333 42.1423 5.62667 42.0889 6.288C42.0356 6.93867 41.9663 7.57867 41.8809 8.208C41.8489 8.44267 41.8116 8.70933 41.7689 9.008C41.7369 9.30667 41.7103 9.6 41.6889 9.888C41.6676 10.1653 41.6516 10.4053 41.6409 10.608C41.5663 11.5147 41.4969 12.2027 41.4329 12.672C41.3689 13.1413 41.2889 13.4027 41.1929 13.456ZM38.4889 8.064C38.5423 8.064 38.6169 8.05867 38.7129 8.048C38.8196 8.03733 38.9423 8.01067 39.0809 7.968C39.2303 7.97867 39.4116 7.97867 39.6249 7.968C39.8489 7.95733 40.0356 7.93067 40.1849 7.888C40.4303 7.856 40.6063 7.82933 40.7129 7.808C40.8303 7.776 40.9049 7.71733 40.9369 7.632C40.9796 7.54667 41.0009 7.408 41.0009 7.216C41.0009 7.16267 41.0009 7.072 41.0009 6.944C41.0116 6.80533 41.0169 6.66133 41.0169 6.512C41.0489 6.23467 41.0809 5.888 41.1129 5.472C41.1449 5.056 41.1716 4.64 41.1929 4.224C41.2143 3.808 41.2249 3.45067 41.2249 3.152C41.2356 2.84267 41.2303 2.66667 41.2089 2.624C41.2089 2.51733 41.1663 2.43733 41.0809 2.384C41.0063 2.33067 40.9423 2.304 40.8889 2.304C40.7503 2.304 40.6009 2.41067 40.4409 2.624C40.2916 2.82667 40.1476 3.08267 40.0089 3.392C39.9556 3.54133 39.8649 3.77067 39.7369 4.08C39.6196 4.37867 39.4863 4.69867 39.3369 5.04C39.1983 5.38133 39.0703 5.68533 38.9529 5.952C38.8463 6.21867 38.7823 6.38933 38.7609 6.464C38.7183 6.50667 38.6596 6.61333 38.5849 6.784C38.5209 6.95467 38.4409 7.11467 38.3449 7.264C38.1849 7.552 38.1316 7.77067 38.1849 7.92C38.2383 8.05867 38.3396 8.10667 38.4889 8.064ZM49.1837 13.216C49.045 13.1627 48.933 13.0827 48.8477 12.976C48.773 12.88 48.709 12.7573 48.6557 12.608C48.677 12.544 48.7197 12.3733 48.7837 12.096C48.8477 11.8187 48.9277 11.488 49.0237 11.104C49.1197 10.72 49.2264 10.3307 49.3437 9.936C49.461 9.53067 49.573 9.168 49.6797 8.848C49.7224 8.58133 49.749 8.39467 49.7597 8.288C49.781 8.17067 49.7864 8.096 49.7757 8.064C49.765 8.032 49.7384 8.00533 49.6957 7.984C49.6317 7.94133 49.477 7.89333 49.2317 7.84C48.997 7.78667 48.725 7.73333 48.4157 7.68C48.1064 7.62667 47.8077 7.57867 47.5197 7.536C47.2317 7.48267 47.013 7.44533 46.8637 7.424C46.7357 7.43467 46.597 7.41867 46.4477 7.376C46.2984 7.33333 46.1544 7.31733 46.0157 7.328C45.845 7.328 45.7384 7.32267 45.6957 7.312C45.653 7.30133 45.6157 7.26933 45.5837 7.216C45.573 7.152 45.5517 7.136 45.5197 7.168C45.4984 7.2 45.445 7.33867 45.3597 7.584C45.2744 7.82933 45.1464 8.23467 44.9757 8.8C44.7944 9.35467 44.661 9.80267 44.5757 10.144C44.501 10.4853 44.4477 10.7627 44.4157 10.976C44.3837 11.1893 44.3517 11.376 44.3197 11.536C44.245 11.7813 44.1757 12.0267 44.1117 12.272C44.0584 12.5173 44.005 12.7147 43.9517 12.864C43.909 13.024 43.8557 13.1093 43.7917 13.12C43.7704 13.1627 43.7224 13.1627 43.6477 13.12C43.5837 13.088 43.5037 13.0507 43.4077 13.008C43.2477 12.8907 43.1517 12.7573 43.1197 12.608C43.0877 12.4587 43.109 12.224 43.1837 11.904C43.269 11.5733 43.3864 11.0827 43.5357 10.432C43.621 10.0053 43.701 9.60533 43.7757 9.232C43.861 8.85867 43.941 8.64 44.0157 8.576C44.069 8.39467 44.1384 8.12267 44.2237 7.76C44.3197 7.38667 44.437 7.04533 44.5757 6.736C44.661 6.416 44.789 6.02667 44.9597 5.568C45.141 5.10933 45.333 4.64 45.5357 4.16C45.7384 3.66933 45.9304 3.216 46.1117 2.8C46.293 2.384 46.437 2.05333 46.5437 1.808C46.629 1.73333 46.7144 1.62667 46.7997 1.488C46.8957 1.34933 46.949 1.24267 46.9597 1.168C47.045 1.008 47.109 0.917333 47.1517 0.896C47.205 0.864 47.269 0.853333 47.3437 0.863999C47.4824 0.885333 47.605 0.944 47.7117 1.04C47.829 1.136 47.9144 1.248 47.9677 1.376C48.0317 1.49333 48.037 1.60533 47.9837 1.712C47.909 1.78667 47.797 1.94667 47.6477 2.192C47.4984 2.42667 47.317 2.81067 47.1037 3.344C47.0504 3.45067 46.9597 3.58933 46.8317 3.76C46.7144 3.93067 46.629 4.09067 46.5757 4.24C46.501 4.35733 46.453 4.47467 46.4317 4.592C46.421 4.70933 46.389 4.79467 46.3357 4.848C46.3037 4.92267 46.2504 5.03467 46.1757 5.184C46.101 5.33333 46.0264 5.49333 45.9517 5.664C45.877 5.83467 45.813 5.984 45.7597 6.112C45.717 6.24 45.701 6.31467 45.7117 6.336C45.733 6.35733 45.8504 6.384 46.0637 6.416C46.2877 6.448 46.533 6.48 46.7997 6.512C47.077 6.53333 47.2957 6.55467 47.4557 6.576C47.509 6.56533 47.621 6.576 47.7917 6.608C47.973 6.62933 48.1757 6.656 48.3997 6.688C48.6344 6.72 48.8637 6.752 49.0877 6.784C49.4077 6.89067 49.6744 6.96 49.8877 6.992C50.1117 7.024 50.229 7.01867 50.2397 6.976C50.2397 6.976 50.261 6.91733 50.3037 6.8C50.357 6.68267 50.4317 6.512 50.5277 6.288C50.5704 6.128 50.6397 5.86133 50.7357 5.488C50.8424 5.11467 50.949 4.76267 51.0557 4.432C51.1837 4.208 51.2957 3.96267 51.3917 3.696C51.4877 3.41867 51.5624 3.152 51.6157 2.896C51.6797 2.62933 51.7277 2.41067 51.7597 2.24C51.8344 1.92 51.9197 1.664 52.0157 1.472C52.1224 1.28 52.2024 1.14133 52.2557 1.056C52.2557 1.056 52.2877 1.072 52.3517 1.104C52.4264 1.12533 52.501 1.14667 52.5757 1.168C52.7677 1.2 52.8904 1.29067 52.9437 1.44C53.0077 1.57867 53.0077 1.808 52.9437 2.128C52.8797 2.448 52.7464 2.89067 52.5437 3.456C52.501 3.59467 52.421 3.79733 52.3037 4.064C52.197 4.32 52.0957 4.58133 51.9997 4.848C51.9037 5.104 51.8397 5.296 51.8077 5.424C51.7224 5.69067 51.6317 5.94133 51.5357 6.176C51.4397 6.41067 51.301 6.73067 51.1197 7.136C51.109 7.168 51.1197 7.248 51.1517 7.376C51.1837 7.49333 51.2264 7.61067 51.2797 7.728C51.365 7.856 51.413 7.96267 51.4237 8.048C51.4344 8.13333 51.4077 8.19733 51.3437 8.24C51.2797 8.28267 51.1784 8.304 51.0397 8.304C50.901 8.29333 50.7997 8.32 50.7357 8.384C50.6824 8.448 50.6397 8.60267 50.6077 8.848C50.4904 9.11467 50.373 9.44533 50.2557 9.84C50.1384 10.224 50.0317 10.6187 49.9357 11.024C49.8397 11.4293 49.7597 11.7973 49.6957 12.128C49.6424 12.4587 49.6157 12.6933 49.6157 12.832C49.541 13.056 49.4877 13.184 49.4557 13.216C49.4237 13.248 49.333 13.248 49.1837 13.216Z" fill="white"/>
<path d="M10.2882 24.672C10.2788 24.728 10.2228 24.742 10.1202 24.714C10.0268 24.6953 9.94285 24.63 9.86818 24.518C9.79351 24.3407 9.75618 24.1773 9.75618 24.028C9.75618 23.8787 9.76085 23.6547 9.77018 23.356C9.82618 23.0293 9.90085 22.6047 9.99418 22.082C10.0968 21.55 10.2135 20.9573 10.3442 20.304C10.4842 19.6413 10.6335 18.9507 10.7922 18.232C10.9042 17.8587 10.9928 17.518 11.0582 17.21C11.1328 16.8927 11.1888 16.636 11.2262 16.44C11.2635 16.244 11.2822 16.146 11.2822 16.146C11.2822 16.118 11.2542 16.132 11.1982 16.188C11.1515 16.2347 11.1048 16.2907 11.0582 16.356C11.0115 16.4213 10.9928 16.4727 11.0022 16.51C11.0022 16.51 10.9695 16.5567 10.9042 16.65C10.8388 16.7433 10.7548 16.8693 10.6522 17.028C10.5588 17.1213 10.4468 17.308 10.3162 17.588C10.1855 17.868 10.0408 18.1293 9.88218 18.372C9.73285 18.652 9.57418 18.9553 9.40618 19.282C9.23818 19.5993 9.08885 19.8653 8.95818 20.08C8.87418 20.2013 8.79018 20.3413 8.70618 20.5C8.62218 20.6587 8.57085 20.7613 8.55218 20.808C8.51485 20.9107 8.44951 21.0367 8.35618 21.186C8.26285 21.326 8.16018 21.466 8.04818 21.606C7.99218 21.69 7.93618 21.7787 7.88018 21.872C7.82418 21.956 7.77751 22.0307 7.74018 22.096C7.71218 22.152 7.69818 22.18 7.69818 22.18C7.69818 22.208 7.65151 22.292 7.55818 22.432C7.47418 22.572 7.36685 22.726 7.23618 22.894C7.11485 23.062 6.99818 23.2067 6.88618 23.328C6.55951 23.6733 6.29818 23.8787 6.10218 23.944C5.90618 24 5.68685 23.916 5.44418 23.692C5.32285 23.5427 5.23418 23.3747 5.17818 23.188C5.12218 22.992 5.09885 22.754 5.10818 22.474C5.11751 22.1847 5.15018 21.8253 5.20618 21.396C5.27151 21.0693 5.33218 20.7427 5.38818 20.416C5.44418 20.08 5.49551 19.7673 5.54218 19.478C5.59818 19.1793 5.64485 18.9273 5.68218 18.722C5.72885 18.5167 5.76618 18.3813 5.79418 18.316C5.81285 18.1293 5.80818 18.0267 5.78018 18.008C5.75218 17.9893 5.69618 18.0453 5.61218 18.176C5.57485 18.2413 5.47685 18.4047 5.31818 18.666C5.15951 18.918 4.97285 19.2307 4.75818 19.604C4.55285 19.9773 4.34751 20.3833 4.14218 20.822C3.75951 21.5313 3.44218 22.1193 3.19018 22.586C2.94751 23.0433 2.75151 23.4073 2.60218 23.678C2.46218 23.9487 2.35951 24.1493 2.29418 24.28C2.22885 24.4107 2.18218 24.4993 2.15418 24.546C2.12618 24.5927 2.10285 24.6253 2.08418 24.644C2.00018 24.644 1.91151 24.6067 1.81818 24.532C1.73418 24.4667 1.64551 24.3873 1.55218 24.294C1.52418 24.2287 1.51018 24.1633 1.51018 24.098C1.51951 24.0327 1.55218 23.9393 1.60818 23.818C1.66418 23.6873 1.74818 23.4913 1.86018 23.23C1.98151 22.9873 2.09351 22.7773 2.19618 22.6C2.29885 22.4133 2.37818 22.3013 2.43418 22.264C2.48085 22.1893 2.52285 22.1147 2.56018 22.04C2.59751 21.9653 2.62085 21.8767 2.63018 21.774C2.67685 21.718 2.74685 21.606 2.84018 21.438C2.94285 21.2607 3.04551 21.0693 3.14818 20.864C3.22285 20.7427 3.31618 20.584 3.42818 20.388C3.54951 20.192 3.67551 19.9773 3.80618 19.744C3.93685 19.5013 4.05351 19.2727 4.15618 19.058C4.58551 18.3207 4.94951 17.7 5.24818 17.196C5.54685 16.6827 5.77085 16.356 5.92018 16.216C5.96685 16.1693 6.01351 16.104 6.06018 16.02C6.11618 15.936 6.14418 15.8613 6.14418 15.796C6.14418 15.6 6.18151 15.4227 6.25618 15.264C6.34018 15.096 6.42418 15.0213 6.50818 15.04C6.60151 15.04 6.68551 15.0493 6.76018 15.068C6.83485 15.0867 6.91418 15.1473 6.99818 15.25C7.07285 15.362 7.13818 15.474 7.19418 15.586C7.25018 15.698 7.24551 15.922 7.18018 16.258C7.18018 16.3887 7.16618 16.538 7.13818 16.706C7.11018 16.8647 7.08218 17.014 7.05418 17.154C7.03551 17.2847 7.02151 17.3873 7.01218 17.462C6.89085 17.826 6.77885 18.2367 6.67618 18.694C6.57351 19.142 6.48018 19.5993 6.39618 20.066C6.31218 20.5233 6.24218 20.9527 6.18618 21.354C6.13018 21.746 6.09285 22.0727 6.07418 22.334C6.06485 22.586 6.07418 22.7307 6.10218 22.768C6.16751 22.8053 6.22351 22.81 6.27018 22.782C6.31685 22.754 6.39618 22.6327 6.50818 22.418C6.57351 22.306 6.66218 22.1707 6.77418 22.012C6.89551 21.844 7.01218 21.69 7.12418 21.55C7.19885 21.4193 7.31551 21.2233 7.47418 20.962C7.63285 20.7007 7.83351 20.3647 8.07618 19.954C8.32818 19.5433 8.62685 19.044 8.97218 18.456C9.32685 17.8587 9.72818 17.168 10.1762 16.384C10.3908 16.0573 10.5915 15.74 10.7782 15.432C10.9742 15.1147 11.1328 14.9093 11.2542 14.816C11.3848 14.6947 11.5202 14.6667 11.6602 14.732C11.8002 14.788 11.9215 14.9093 12.0242 15.096C12.1362 15.2827 12.1968 15.516 12.2062 15.796C12.2155 15.9267 12.1968 16.1367 12.1502 16.426C12.1128 16.7153 12.0522 17.0467 11.9682 17.42C11.8842 17.784 11.7768 18.162 11.6462 18.554C11.6182 18.7127 11.5715 18.9133 11.5062 19.156C11.4502 19.3893 11.3848 19.632 11.3102 19.884C11.2355 20.136 11.1608 20.374 11.0862 20.598C11.0395 20.906 10.9835 21.2093 10.9182 21.508C10.8622 21.8067 10.8435 22.0073 10.8622 22.11C10.7782 22.2593 10.7222 22.474 10.6942 22.754C10.6662 23.034 10.6522 23.3233 10.6522 23.622C10.6148 23.986 10.5868 24.2427 10.5682 24.392C10.5495 24.5413 10.5168 24.6113 10.4702 24.602C10.3488 24.5647 10.2882 24.588 10.2882 24.672ZM14.3444 24.336C14.055 24.3173 13.7984 24.2287 13.5744 24.07C13.3597 23.9113 13.131 23.748 12.8884 23.58C12.7297 23.4213 12.6037 23.2533 12.5104 23.076C12.417 22.8893 12.3424 22.6467 12.2864 22.348C12.249 22.1707 12.249 21.9467 12.2864 21.676C12.3237 21.4053 12.3844 21.1347 12.4684 20.864C12.5524 20.584 12.6317 20.36 12.7064 20.192C12.8184 19.9307 12.9584 19.6507 13.1264 19.352C13.3037 19.044 13.4764 18.7547 13.6444 18.484C13.8217 18.204 13.9617 17.98 14.0644 17.812C14.1297 17.7467 14.1577 17.714 14.1484 17.714C14.1484 17.7047 14.1484 17.7 14.1484 17.7C14.1484 17.6533 14.195 17.5367 14.2884 17.35C14.391 17.154 14.4797 16.9813 14.5544 16.832C14.6944 16.6827 14.7737 16.5613 14.7924 16.468C14.811 16.3747 14.797 16.3 14.7504 16.244C14.7317 16.2067 14.7644 16.1413 14.8484 16.048C14.9324 15.9547 15.0584 15.8473 15.2264 15.726C15.3944 15.6047 15.5857 15.4833 15.8004 15.362C16.0244 15.1847 16.239 15.0913 16.4444 15.082C16.659 15.0633 16.785 15.1053 16.8224 15.208C16.8224 15.236 16.8737 15.2453 16.9764 15.236C17.0884 15.2173 17.2144 15.194 17.3544 15.166C17.5037 15.1287 17.6344 15.1007 17.7464 15.082C17.793 15.026 17.9004 14.984 18.0684 14.956C18.2457 14.9187 18.451 14.886 18.6844 14.858C18.8057 14.8673 18.9224 14.872 19.0344 14.872C19.1557 14.8627 19.2537 14.8533 19.3284 14.844C19.4124 14.8347 19.4544 14.83 19.4544 14.83C19.5197 14.8113 19.5944 14.8207 19.6784 14.858C19.7717 14.8953 19.8557 14.998 19.9304 15.166C19.9957 15.334 19.9724 15.46 19.8604 15.544C19.7577 15.628 19.515 15.6933 19.1324 15.74C18.8524 15.7773 18.6097 15.81 18.4044 15.838C18.199 15.8567 17.9844 15.8847 17.7604 15.922C17.5364 15.95 17.261 16.0013 16.9344 16.076C16.701 16.1227 16.5097 16.1787 16.3604 16.244C16.211 16.3 16.0804 16.3887 15.9684 16.51C15.8564 16.622 15.7304 16.7853 15.5904 17C15.525 17.0467 15.441 17.168 15.3384 17.364C15.2357 17.56 15.133 17.756 15.0304 17.952C14.769 18.316 14.5404 18.6333 14.3444 18.904C14.1577 19.1653 14.083 19.3193 14.1204 19.366C14.1204 19.366 14.1717 19.38 14.2744 19.408C14.377 19.436 14.447 19.45 14.4844 19.45C14.5777 19.4033 14.6897 19.3707 14.8204 19.352C14.9604 19.3333 15.0724 19.3147 15.1564 19.296C15.735 19.1467 16.1877 19.03 16.5144 18.946C16.8504 18.862 17.1024 18.8013 17.2704 18.764C17.4477 18.7173 17.583 18.6893 17.6764 18.68C17.807 18.5773 17.933 18.5587 18.0544 18.624C18.185 18.6893 18.2877 18.792 18.3624 18.932C18.409 19.0347 18.409 19.1233 18.3624 19.198C18.325 19.2727 18.2084 19.3473 18.0124 19.422C17.8257 19.4967 17.5457 19.5853 17.1724 19.688C16.799 19.7907 16.309 19.926 15.7024 20.094C15.189 20.2433 14.7504 20.332 14.3864 20.36C14.0224 20.388 13.8497 20.3087 13.8684 20.122C13.803 20.0847 13.7284 20.1313 13.6444 20.262C13.5697 20.3833 13.495 20.5513 13.4204 20.766C13.3457 20.9807 13.2804 21.2093 13.2244 21.452C13.1777 21.6947 13.145 21.9233 13.1264 22.138C13.117 22.3433 13.131 22.4973 13.1684 22.6C13.243 22.8147 13.341 22.9873 13.4624 23.118C13.5837 23.2393 13.803 23.3467 14.1204 23.44C14.307 23.4493 14.489 23.4633 14.6664 23.482C14.8437 23.5007 15.0444 23.4633 15.2684 23.37C15.819 23.2767 16.253 23.1787 16.5704 23.076C16.8877 22.9733 17.0697 22.9033 17.1164 22.866C17.191 22.8287 17.2377 22.81 17.2564 22.81C17.2844 22.8007 17.3217 22.796 17.3684 22.796C17.3404 22.8427 17.3497 22.8473 17.3964 22.81C17.4524 22.7633 17.527 22.6933 17.6204 22.6C17.723 22.5067 17.8584 22.418 18.0264 22.334C18.1944 22.25 18.3437 22.1847 18.4744 22.138C18.6144 22.0913 18.689 22.0913 18.6984 22.138C18.7544 22.2313 18.745 22.362 18.6704 22.53C18.5957 22.6887 18.4604 22.866 18.2644 23.062C18.0684 23.2487 17.8164 23.4307 17.5084 23.608C17.0137 23.8693 16.477 24.0513 15.8984 24.154C15.3197 24.266 14.8017 24.3267 14.3444 24.336ZM22.6011 24.532C22.2277 24.532 21.8917 24.5087 21.5931 24.462C21.3037 24.4247 21.0377 24.3127 20.7951 24.126C20.5057 23.9113 20.3377 23.6313 20.2911 23.286C20.2537 22.9313 20.3237 22.4227 20.5011 21.76C20.5477 21.5267 20.5991 21.3213 20.6551 21.144C20.7204 20.9667 20.7764 20.878 20.8231 20.878C20.8324 20.8313 20.8464 20.766 20.8651 20.682C20.8837 20.5887 20.9024 20.4813 20.9211 20.36C20.9677 20.192 21.0004 20.0707 21.0191 19.996C21.0377 19.912 21.0751 19.842 21.1311 19.786C21.1591 19.7673 21.1917 19.7067 21.2291 19.604C21.2664 19.492 21.2897 19.4267 21.2991 19.408C21.2991 19.408 21.3037 19.3753 21.3131 19.31C21.3224 19.2353 21.3457 19.1513 21.3831 19.058C21.5231 18.8247 21.5931 18.6707 21.5931 18.596C21.6117 18.5587 21.6491 18.5027 21.7051 18.428C21.7704 18.3533 21.8217 18.2553 21.8591 18.134C22.1391 17.6393 22.3677 17.2147 22.5451 16.86C22.7224 16.496 22.8297 16.2253 22.8671 16.048C22.9137 15.9453 22.9557 15.8567 22.9931 15.782C23.0397 15.698 23.0957 15.6187 23.1611 15.544C23.1424 15.4973 23.1797 15.446 23.2731 15.39C23.3664 15.334 23.4971 15.2733 23.6651 15.208C23.8331 15.1427 24.0151 15.0867 24.2111 15.04C24.4164 14.9933 24.6171 14.9653 24.8131 14.956C24.8691 14.9187 24.9904 14.8907 25.1771 14.872C25.3731 14.8533 25.5971 14.844 25.8491 14.844C26.1011 14.844 26.3344 14.8533 26.5491 14.872C26.7544 14.872 26.9177 14.9 27.0391 14.956C27.1604 15.012 27.2817 15.068 27.4031 15.124C27.4497 15.1707 27.4824 15.2267 27.5011 15.292C27.5291 15.3573 27.5477 15.418 27.5571 15.474C27.5664 15.5207 27.5711 15.544 27.5711 15.544C27.5711 15.5907 27.4404 15.6187 27.1791 15.628C26.9177 15.6373 26.6331 15.642 26.3251 15.642C25.9797 15.642 25.6484 15.67 25.3311 15.726C25.0137 15.782 24.8037 15.81 24.7011 15.81C24.5704 15.8473 24.4537 15.8707 24.3511 15.88C24.2577 15.8893 24.2111 15.894 24.2111 15.894C24.1924 15.894 24.1317 15.9687 24.0291 16.118C23.9357 16.258 23.8284 16.426 23.7071 16.622C23.5951 16.8087 23.4924 16.986 23.3991 17.154C23.3151 17.3127 23.2731 17.406 23.2731 17.434C23.2731 17.5273 23.2357 17.63 23.1611 17.742C23.0864 17.854 22.9977 17.9847 22.8951 18.134C22.8017 18.2553 22.7411 18.3673 22.7131 18.47C22.6851 18.5633 22.7131 18.6287 22.7971 18.666C22.9464 18.638 23.1471 18.61 23.3991 18.582C23.6604 18.554 23.9171 18.5307 24.1691 18.512C24.4304 18.484 24.6311 18.47 24.7711 18.47C24.9297 18.4233 25.0604 18.414 25.1631 18.442C25.2657 18.47 25.3404 18.498 25.3871 18.526C25.4991 18.5447 25.5784 18.582 25.6251 18.638C25.6717 18.6847 25.6904 18.7313 25.6811 18.778C25.6811 18.8247 25.6484 18.862 25.5831 18.89C25.5271 18.946 25.3871 19.0113 25.1631 19.086C24.9391 19.1607 24.6777 19.2353 24.3791 19.31C24.0804 19.3847 23.7771 19.4547 23.4691 19.52C23.1704 19.576 22.9137 19.6227 22.6991 19.66C22.4844 19.6973 22.3584 19.7113 22.3211 19.702C22.2651 19.5713 22.2231 19.576 22.1951 19.716C22.1764 19.8467 22.0737 20.1173 21.8871 20.528C21.7844 20.7613 21.6911 20.9853 21.6071 21.2C21.5324 21.4053 21.4671 21.6247 21.4111 21.858C21.3644 22.082 21.3131 22.3387 21.2571 22.628C21.1917 22.88 21.1731 23.0853 21.2011 23.244C21.2384 23.3933 21.4064 23.538 21.7051 23.678C21.8917 23.7153 22.1391 23.7293 22.4471 23.72C22.7644 23.7107 23.1237 23.6547 23.5251 23.552C23.6931 23.4493 23.8471 23.37 23.9871 23.314C24.1271 23.2487 24.2297 23.1973 24.2951 23.16C24.3417 23.16 24.4117 23.1507 24.5051 23.132C24.6077 23.104 24.6777 23.09 24.7151 23.09C24.7897 22.9873 24.8831 22.936 24.9951 22.936C25.0137 22.936 25.0557 22.9733 25.1211 23.048C25.1957 23.1133 25.2657 23.188 25.3311 23.272C25.3964 23.356 25.4244 23.412 25.4151 23.44C25.4151 23.5333 25.3124 23.6267 25.1071 23.72C24.9017 23.8133 24.5657 23.9533 24.0991 24.14C23.8657 24.2427 23.6744 24.322 23.5251 24.378C23.3851 24.434 23.2497 24.4713 23.1191 24.49C22.9884 24.518 22.8157 24.532 22.6011 24.532ZM29.823 24.378C29.7857 24.4153 29.7437 24.4293 29.697 24.42C29.6503 24.42 29.5757 24.3967 29.473 24.35C29.2957 24.3033 29.1837 24.2333 29.137 24.14C29.0997 24.056 29.1277 23.9113 29.221 23.706C29.2583 23.6407 29.305 23.5007 29.361 23.286C29.4263 23.062 29.4963 22.8053 29.571 22.516C29.6457 22.2267 29.7203 21.9373 29.795 21.648C29.8697 21.3587 29.935 21.1067 29.991 20.892C30.047 20.668 30.0843 20.5187 30.103 20.444C30.103 20.3693 30.1217 20.22 30.159 19.996C30.2057 19.772 30.2477 19.52 30.285 19.24C30.3877 19.044 30.4577 18.8293 30.495 18.596C30.5417 18.3627 30.5743 18.1947 30.593 18.092C30.6303 17.9427 30.6723 17.784 30.719 17.616C30.775 17.448 30.8217 17.28 30.859 17.112C30.8963 16.9627 30.9337 16.8087 30.971 16.65C31.0177 16.4913 31.041 16.3887 31.041 16.342V16.118H30.523C30.383 16.1273 30.1777 16.1273 29.907 16.118C29.6363 16.1087 29.3937 16.104 29.179 16.104C28.7403 16.0853 28.4463 16.0433 28.297 15.978C28.157 15.9033 28.0777 15.7633 28.059 15.558C28.0403 15.446 28.0637 15.3667 28.129 15.32C28.1943 15.2733 28.3483 15.2453 28.591 15.236C28.8337 15.2267 29.207 15.2313 29.711 15.25C30.103 15.2313 30.4437 15.2313 30.733 15.25C31.0223 15.2593 31.1857 15.264 31.223 15.264C31.2603 15.2267 31.2837 15.1893 31.293 15.152C31.3023 15.1147 31.3163 15.0773 31.335 15.04C31.335 14.9933 31.3397 14.942 31.349 14.886C31.3677 14.8207 31.4143 14.774 31.489 14.746C31.5637 14.606 31.6477 14.55 31.741 14.578C31.8437 14.5967 31.9463 14.6807 32.049 14.83C32.0863 14.914 32.119 15.0027 32.147 15.096C32.1843 15.1893 32.2357 15.2733 32.301 15.348C32.3383 15.3107 32.4363 15.2873 32.595 15.278C32.7537 15.2687 32.9217 15.2593 33.099 15.25C33.3137 15.25 33.505 15.2453 33.673 15.236C33.841 15.2173 33.9577 15.208 34.023 15.208C34.107 15.1613 34.2143 15.138 34.345 15.138C34.485 15.138 34.625 15.1473 34.765 15.166C34.9797 15.166 35.129 15.1753 35.213 15.194C35.3063 15.2127 35.367 15.2453 35.395 15.292C35.395 15.3293 35.395 15.3667 35.395 15.404C35.4043 15.4413 35.4277 15.4787 35.465 15.516C35.5023 15.5533 35.521 15.5813 35.521 15.6C35.521 15.6093 35.5023 15.6513 35.465 15.726C35.4277 15.7633 35.3623 15.796 35.269 15.824C35.1757 15.8427 35.073 15.852 34.961 15.852C34.8957 15.852 34.7837 15.8613 34.625 15.88C34.4663 15.8893 34.331 15.894 34.219 15.894C34.0043 15.9313 33.7617 15.964 33.491 15.992C33.2297 16.0107 32.9357 16.0293 32.609 16.048C32.469 16.048 32.3383 16.0573 32.217 16.076C32.0957 16.0853 32.035 16.1133 32.035 16.16C31.9977 16.16 31.9463 16.258 31.881 16.454C31.825 16.65 31.769 16.8553 31.713 17.07C31.657 17.3127 31.5963 17.5227 31.531 17.7C31.475 17.8773 31.4283 17.994 31.391 18.05C31.4283 18.0873 31.4423 18.134 31.433 18.19C31.433 18.246 31.405 18.344 31.349 18.484C31.3117 18.6147 31.2743 18.7173 31.237 18.792C31.209 18.8667 31.195 18.9413 31.195 19.016C31.195 19.016 31.1717 19.0907 31.125 19.24C31.0877 19.38 31.0503 19.5573 31.013 19.772C30.9943 19.9773 30.9663 20.15 30.929 20.29C30.901 20.43 30.8683 20.5187 30.831 20.556C30.831 20.556 30.8123 20.5887 30.775 20.654C30.7377 20.71 30.719 20.7753 30.719 20.85C30.719 20.934 30.7003 21.074 30.663 21.27C30.635 21.4567 30.6023 21.634 30.565 21.802C30.5277 21.97 30.495 22.0633 30.467 22.082C30.5603 22.1007 30.5463 22.2267 30.425 22.46C30.425 22.5533 30.411 22.6467 30.383 22.74C30.355 22.8333 30.341 22.8987 30.341 22.936C30.285 23.1133 30.2197 23.3093 30.145 23.524C30.0703 23.7387 30.005 23.9253 29.949 24.084C29.893 24.252 29.851 24.35 29.823 24.378ZM38.5477 17.644C38.3984 17.5413 38.2911 17.434 38.2257 17.322C38.1697 17.21 38.1604 17.0933 38.1977 16.972C38.2257 16.7573 38.2724 16.5567 38.3377 16.37C38.4124 16.1833 38.4777 16.0013 38.5337 15.824C38.5897 15.6093 38.6831 15.4133 38.8137 15.236C38.9444 15.0587 39.0891 14.8813 39.2477 14.704C39.2384 14.6667 39.2664 14.6433 39.3317 14.634C39.3971 14.6247 39.4811 14.6013 39.5837 14.564C39.6864 14.5547 39.7471 14.5547 39.7657 14.564C39.7937 14.5733 39.8404 14.606 39.9057 14.662C39.9244 14.7273 39.9151 14.788 39.8777 14.844C39.8497 14.8907 39.8124 14.9513 39.7657 15.026C39.6537 15.2033 39.5231 15.4227 39.3737 15.684C39.2337 15.9453 39.1404 16.146 39.0937 16.286C39.0937 16.3233 39.0891 16.356 39.0797 16.384C39.2384 16.356 39.4017 16.412 39.5697 16.552C39.7471 16.72 39.8031 16.8927 39.7377 17.07C39.6817 17.238 39.5324 17.406 39.2897 17.574C39.1217 17.6767 38.9957 17.7327 38.9117 17.742C38.8371 17.742 38.7157 17.7093 38.5477 17.644ZM39.5864 23.678C39.549 23.6593 39.493 23.6267 39.4184 23.58C39.353 23.524 39.283 23.4633 39.2084 23.398C39.143 23.3233 39.0964 23.258 39.0684 23.202C39.0404 23.1553 39.0404 23.0713 39.0684 22.95C39.1057 22.8287 39.143 22.768 39.1804 22.768C39.2084 22.7867 39.255 22.754 39.3204 22.67C39.3857 22.586 39.451 22.4973 39.5164 22.404C39.5817 22.3013 39.6144 22.2407 39.6144 22.222C39.6237 22.1847 39.647 22.1567 39.6844 22.138C39.731 22.11 39.773 22.082 39.8104 22.054C39.857 21.9793 39.9177 21.9047 39.9924 21.83C40.0764 21.746 40.1417 21.676 40.1884 21.62C40.263 21.5267 40.3984 21.3867 40.5944 21.2C40.7904 21.0133 40.9817 20.822 41.1684 20.626C41.3644 20.4113 41.537 20.2247 41.6864 20.066C41.8357 19.898 41.915 19.7813 41.9244 19.716C41.9244 19.716 41.9384 19.702 41.9664 19.674C42.0037 19.6367 42.0457 19.604 42.0924 19.576C42.139 19.548 42.1997 19.5013 42.2744 19.436C42.3584 19.3707 42.4284 19.31 42.4844 19.254C42.503 19.1793 42.5544 19.0767 42.6384 18.946C42.7317 18.806 42.825 18.6893 42.9184 18.596C42.993 18.484 43.063 18.3627 43.1284 18.232C43.1937 18.092 43.2357 17.9893 43.2544 17.924C43.2824 17.8213 43.2824 17.7607 43.2544 17.742C43.2264 17.714 43.1097 17.6673 42.9044 17.602C42.6804 17.5273 42.433 17.4993 42.1624 17.518C41.901 17.5273 41.607 17.6487 41.2804 17.882C41.1497 17.91 41.0284 17.9473 40.9164 17.994C40.8137 18.0407 40.725 18.0593 40.6504 18.05C40.613 18.0313 40.571 17.9893 40.5244 17.924C40.4777 17.8587 40.4264 17.798 40.3704 17.742L40.2304 17.448L40.6644 17.21C41.047 16.9673 41.3924 16.7993 41.7004 16.706C42.0177 16.6127 42.307 16.608 42.5684 16.692C42.671 16.692 42.7644 16.706 42.8484 16.734C42.9324 16.7527 42.9744 16.762 42.9744 16.762C43.049 16.7527 43.1424 16.7947 43.2544 16.888C43.3664 16.972 43.4737 17.0793 43.5764 17.21C43.6884 17.3407 43.7724 17.4713 43.8284 17.602C43.9777 17.826 44.0244 18.064 43.9684 18.316C43.9217 18.5587 43.7817 18.8527 43.5484 19.198C43.5017 19.254 43.399 19.3707 43.2404 19.548C43.0817 19.7253 42.8997 19.926 42.6944 20.15C42.4984 20.3647 42.3164 20.556 42.1484 20.724C41.9897 20.892 41.887 20.9993 41.8404 21.046C41.775 21.074 41.663 21.172 41.5044 21.34C41.355 21.4987 41.1917 21.676 41.0144 21.872C40.8464 22.0587 40.7017 22.2267 40.5804 22.376C40.4684 22.516 40.4217 22.586 40.4404 22.586C40.431 22.6233 40.445 22.642 40.4824 22.642C40.5197 22.6327 40.5804 22.614 40.6644 22.586C40.8044 22.5393 40.9864 22.4927 41.2104 22.446C41.4437 22.3993 41.6817 22.362 41.9244 22.334C42.167 22.2967 42.377 22.2733 42.5544 22.264C42.741 22.2547 42.8484 22.264 42.8764 22.292C42.895 22.3387 42.909 22.3573 42.9184 22.348C42.937 22.3293 42.9464 22.32 42.9464 22.32C42.965 22.2547 43.0817 22.236 43.2964 22.264C43.5204 22.292 43.721 22.334 43.8984 22.39C44.001 22.418 44.0804 22.4413 44.1364 22.46C44.2017 22.4787 44.2344 22.5067 44.2344 22.544C44.2344 22.544 44.2437 22.5673 44.2624 22.614C44.2904 22.6513 44.3324 22.7027 44.3884 22.768C44.5377 22.8893 44.5564 22.9687 44.4444 23.006C44.3324 23.0433 44.0897 23.0293 43.7164 22.964C43.4737 22.964 43.273 22.978 43.1144 23.006C43.077 23.0247 42.9977 23.034 42.8764 23.034C42.755 23.034 42.6384 23.0387 42.5264 23.048C42.3584 23.0293 42.1904 23.0387 42.0224 23.076C41.8544 23.104 41.6537 23.1553 41.4204 23.23C41.3364 23.258 41.2057 23.3 41.0284 23.356C40.851 23.412 40.6597 23.468 40.4544 23.524C40.249 23.58 40.0624 23.622 39.8944 23.65C39.7357 23.678 39.633 23.6873 39.5864 23.678ZM45.8891 23.678C45.8518 23.6593 45.7958 23.6267 45.7211 23.58C45.6558 23.524 45.5858 23.4633 45.5111 23.398C45.4458 23.3233 45.3991 23.258 45.3711 23.202C45.3431 23.1553 45.3431 23.0713 45.3711 22.95C45.4084 22.8287 45.4458 22.768 45.4831 22.768C45.5111 22.7867 45.5578 22.754 45.6231 22.67C45.6884 22.586 45.7538 22.4973 45.8191 22.404C45.8844 22.3013 45.9171 22.2407 45.9171 22.222C45.9264 22.1847 45.9498 22.1567 45.9871 22.138C46.0338 22.11 46.0758 22.082 46.1131 22.054C46.1598 21.9793 46.2204 21.9047 46.2951 21.83C46.3791 21.746 46.4444 21.676 46.4911 21.62C46.5658 21.5267 46.7011 21.3867 46.8971 21.2C47.0931 21.0133 47.2844 20.822 47.4711 20.626C47.6671 20.4113 47.8398 20.2247 47.9891 20.066C48.1384 19.898 48.2178 19.7813 48.2271 19.716C48.2271 19.716 48.2411 19.702 48.2691 19.674C48.3064 19.6367 48.3484 19.604 48.3951 19.576C48.4418 19.548 48.5024 19.5013 48.5771 19.436C48.6611 19.3707 48.7311 19.31 48.7871 19.254C48.8058 19.1793 48.8571 19.0767 48.9411 18.946C49.0344 18.806 49.1278 18.6893 49.2211 18.596C49.2958 18.484 49.3658 18.3627 49.4311 18.232C49.4964 18.092 49.5384 17.9893 49.5571 17.924C49.5851 17.8213 49.5851 17.7607 49.5571 17.742C49.5291 17.714 49.4124 17.6673 49.2071 17.602C48.9831 17.5273 48.7358 17.4993 48.4651 17.518C48.2038 17.5273 47.9098 17.6487 47.5831 17.882C47.4524 17.91 47.3311 17.9473 47.2191 17.994C47.1164 18.0407 47.0278 18.0593 46.9531 18.05C46.9158 18.0313 46.8738 17.9893 46.8271 17.924C46.7804 17.8587 46.7291 17.798 46.6731 17.742L46.5331 17.448L46.9671 17.21C47.3498 16.9673 47.6951 16.7993 48.0031 16.706C48.3204 16.6127 48.6098 16.608 48.8711 16.692C48.9738 16.692 49.0671 16.706 49.1511 16.734C49.2351 16.7527 49.2771 16.762 49.2771 16.762C49.3518 16.7527 49.4451 16.7947 49.5571 16.888C49.6691 16.972 49.7764 17.0793 49.8791 17.21C49.9911 17.3407 50.0751 17.4713 50.1311 17.602C50.2804 17.826 50.3271 18.064 50.2711 18.316C50.2244 18.5587 50.0844 18.8527 49.8511 19.198C49.8044 19.254 49.7018 19.3707 49.5431 19.548C49.3844 19.7253 49.2024 19.926 48.9971 20.15C48.8011 20.3647 48.6191 20.556 48.4511 20.724C48.2924 20.892 48.1898 20.9993 48.1431 21.046C48.0778 21.074 47.9658 21.172 47.8071 21.34C47.6578 21.4987 47.4944 21.676 47.3171 21.872C47.1491 22.0587 47.0044 22.2267 46.8831 22.376C46.7711 22.516 46.7244 22.586 46.7431 22.586C46.7338 22.6233 46.7478 22.642 46.7851 22.642C46.8224 22.6327 46.8831 22.614 46.9671 22.586C47.1071 22.5393 47.2891 22.4927 47.5131 22.446C47.7464 22.3993 47.9844 22.362 48.2271 22.334C48.4698 22.2967 48.6798 22.2733 48.8571 22.264C49.0438 22.2547 49.1511 22.264 49.1791 22.292C49.1978 22.3387 49.2118 22.3573 49.2211 22.348C49.2398 22.3293 49.2491 22.32 49.2491 22.32C49.2678 22.2547 49.3844 22.236 49.5991 22.264C49.8231 22.292 50.0238 22.334 50.2011 22.39C50.3038 22.418 50.3831 22.4413 50.4391 22.46C50.5044 22.4787 50.5371 22.5067 50.5371 22.544C50.5371 22.544 50.5464 22.5673 50.5651 22.614C50.5931 22.6513 50.6351 22.7027 50.6911 22.768C50.8404 22.8893 50.8591 22.9687 50.7471 23.006C50.6351 23.0433 50.3924 23.0293 50.0191 22.964C49.7764 22.964 49.5758 22.978 49.4171 23.006C49.3798 23.0247 49.3004 23.034 49.1791 23.034C49.0578 23.034 48.9411 23.0387 48.8291 23.048C48.6611 23.0293 48.4931 23.0387 48.3251 23.076C48.1571 23.104 47.9564 23.1553 47.7231 23.23C47.6391 23.258 47.5084 23.3 47.3311 23.356C47.1538 23.412 46.9624 23.468 46.7571 23.524C46.5518 23.58 46.3651 23.622 46.1971 23.65C46.0384 23.678 45.9358 23.6873 45.8891 23.678Z" fill="white"/>
</svg>
